<?xml version="1.0" encoding="utf-8" standalone="no"?>
<!DOCTYPE svg PUBLIC "-//W3C//DTD SVG 1.1//EN"
  "http://www.w3.org/Graphics/SVG/1.1/DTD/svg11.dtd">
<svg xmlns:xlink="http://www.w3.org/1999/xlink" width="485.584556pt" height="388.611015pt" viewBox="0 0 485.584556 388.611015" xmlns="http://www.w3.org/2000/svg" version="1.1">
 <metadata>
  <rdf:RDF xmlns:dc="http://purl.org/dc/elements/1.1/" xmlns:cc="http://creativecommons.org/ns#" xmlns:rdf="http://www.w3.org/1999/02/22-rdf-syntax-ns#">
   <cc:Work>
    <dc:type rdf:resource="http://purl.org/dc/dcmitype/StillImage"/>
    <dc:date>2025-10-30T18:24:49.583532</dc:date>
    <dc:format>image/svg+xml</dc:format>
    <dc:creator>
     <cc:Agent>
      <dc:title>Matplotlib v3.10.7, https://matplotlib.org/</dc:title>
     </cc:Agent>
    </dc:creator>
   </cc:Work>
  </rdf:RDF>
 </metadata>
 <defs>
  <style type="text/css">*{stroke-linejoin: round; stroke-linecap: butt}</style>
 </defs>
 <g id="figure_1">
  <g id="patch_1">
   <path d="M 0 388.611015 
L 485.584556 388.611015 
L 485.584556 0 
L 0 0 
z
" style="fill: #ffffff"/>
  </g>
  <g id="axes_1">
   <g id="patch_2">
    <path d="M 380.812596 212.124414 
C 380.812596 189.893901 376.433669 167.879552 367.92642 147.341236 
C 359.419172 126.80292 346.949045 108.140056 331.229698 92.42071 
C 315.510352 76.701364 296.847488 64.231237 276.309172 55.723988 
C 255.770856 47.216739 233.756507 42.837813 211.525995 42.837813 
C 189.295482 42.837813 167.281133 47.216739 146.742817 55.723988 
C 126.204501 64.231237 107.541637 76.701364 91.822291 92.42071 
C 76.102945 108.140056 63.632818 126.80292 55.125569 147.341236 
C 46.61832 167.879552 42.239393 189.893901 42.239393 212.124414 
C 42.239393 234.354926 46.61832 256.369276 55.125569 276.907591 
C 63.632818 297.445907 76.102945 316.108771 91.822291 331.828117 
C 107.541637 347.547464 126.204501 360.017591 146.742817 368.52484 
C 167.281133 377.032089 189.295482 381.411015 211.525995 381.411015 
C 233.756507 381.411015 255.770856 377.032089 276.309172 368.52484 
C 296.847488 360.017591 315.510352 347.547464 331.229698 331.828117 
C 346.949045 316.108771 359.419172 297.445907 367.92642 276.907591 
C 376.433669 256.369276 380.812596 234.354926 380.812596 212.124414 
M 211.525995 212.124414 
C 211.525995 212.124414 211.525995 212.124414 211.525995 212.124414 
C 211.525995 212.124414 211.525995 212.124414 211.525995 212.124414 
C 211.525995 212.124414 211.525995 212.124414 211.525995 212.124414 
C 211.525995 212.124414 211.525995 212.124414 211.525995 212.124414 
C 211.525995 212.124414 211.525995 212.124414 211.525995 212.124414 
C 211.525995 212.124414 211.525995 212.124414 211.525995 212.124414 
C 211.525995 212.124414 211.525995 212.124414 211.525995 212.124414 
C 211.525995 212.124414 211.525995 212.124414 211.525995 212.124414 
C 211.525995 212.124414 211.525995 212.124414 211.525995 212.124414 
C 211.525995 212.124414 211.525995 212.124414 211.525995 212.124414 
C 211.525995 212.124414 211.525995 212.124414 211.525995 212.124414 
C 211.525995 212.124414 211.525995 212.124414 211.525995 212.124414 
C 211.525995 212.124414 211.525995 212.124414 211.525995 212.124414 
C 211.525995 212.124414 211.525995 212.124414 211.525995 212.124414 
C 211.525995 212.124414 211.525995 212.124414 211.525995 212.124414 
C 211.525995 212.124414 211.525995 212.124414 211.525995 212.124414 
z
" style="fill: #ffffff"/>
   </g>
   <g id="line2d_1">
    <path d="M 211.525995 42.837813 
L 211.525995 212.124414 
L 277.862106 303.428239 
L 112.021827 349.080151 
L 211.525995 212.124414 
L 211.525995 42.837813 
" clip-path="url(#p5827aa0699)" style="fill: none; stroke: #7777cc; stroke-width: 1.2; stroke-linecap: square"/>
   </g>
   <g id="patch_3">
    <path d="M 211.525995 42.837813 
L 211.525995 212.124414 
L 277.862106 303.428239 
L 112.021827 349.080151 
L 211.525995 212.124414 
z
" clip-path="url(#p5827aa0699)" style="fill: #7777cc; opacity: 0.2; stroke: #7777cc; stroke-linejoin: miter"/>
   </g>
   <g id="line2d_2">
    <path d="M 211.525995 99.26668 
L 372.52712 159.811977 
L 277.862106 303.428239 
L 112.021827 349.080151 
L 104.191911 177.249456 
L 211.525995 99.26668 
" clip-path="url(#p5827aa0699)" style="fill: none; stroke: #7777cc; stroke-width: 1.2; stroke-linecap: square"/>
   </g>
   <g id="patch_4">
    <path d="M 211.525995 99.26668 
L 372.52712 159.811977 
L 277.862106 303.428239 
L 112.021827 349.080151 
L 104.191911 177.249456 
z
" clip-path="url(#p5827aa0699)" style="fill: #7777cc; opacity: 0.2; stroke: #7777cc; stroke-linejoin: miter"/>
   </g>
   <g id="line2d_3">
    <path d="M 211.525995 99.26668 
L 372.52712 159.811977 
L 277.862106 303.428239 
L 112.021827 349.080151 
L 104.191911 177.249456 
L 211.525995 99.26668 
" clip-path="url(#p5827aa0699)" style="fill: none; stroke: #7777cc; stroke-width: 1.2; stroke-linecap: square"/>
   </g>
   <g id="patch_5">
    <path d="M 211.525995 99.26668 
L 372.52712 159.811977 
L 277.862106 303.428239 
L 112.021827 349.080151 
L 104.191911 177.249456 
z
" clip-path="url(#p5827aa0699)" style="fill: #7777cc; opacity: 0.2; stroke: #7777cc; stroke-linejoin: miter"/>
   </g>
   <g id="line2d_4">
    <path d="M 211.525995 42.837813 
L 372.52712 159.811977 
L 244.69405 257.776326 
L 112.021827 349.080151 
L 157.858953 194.686935 
L 211.525995 42.837813 
" clip-path="url(#p5827aa0699)" style="fill: none; stroke: #7777cc; stroke-width: 1.2; stroke-linecap: square"/>
   </g>
   <g id="patch_6">
    <path d="M 211.525995 42.837813 
L 372.52712 159.811977 
L 244.69405 257.776326 
L 112.021827 349.080151 
L 157.858953 194.686935 
z
" clip-path="url(#p5827aa0699)" style="fill: #7777cc; opacity: 0.2; stroke: #7777cc; stroke-linejoin: miter"/>
   </g>
   <g id="matplotlib.axis_1">
    <g id="xtick_1">
     <g id="line2d_5">
      <path d="M 211.525995 212.124414 
L 211.525995 42.837813 
" clip-path="url(#p5827aa0699)" style="fill: none; stroke: #b0b0b0; stroke-width: 0.8; stroke-linecap: square"/>
     </g>
     <g id="text_1">
      <!-- Vector Breadth -->
      <g transform="translate(177.920135 31.32125) scale(0.09 -0.09)">
       <defs>
        <path id="DejaVuSans-56" d="M 1831 0 
L 50 4666 
L 709 4666 
L 2188 738 
L 3669 4666 
L 4325 4666 
L 2547 0 
L 1831 0 
z
" transform="scale(0.015625)"/>
        <path id="DejaVuSans-65" d="M 3597 1894 
L 3597 1613 
L 953 1613 
Q 991 1019 1311 708 
Q 1631 397 2203 397 
Q 2534 397 2845 478 
Q 3156 559 3463 722 
L 3463 178 
Q 3153 47 2828 -22 
Q 2503 -91 2169 -91 
Q 1331 -91 842 396 
Q 353 884 353 1716 
Q 353 2575 817 3079 
Q 1281 3584 2069 3584 
Q 2775 3584 3186 3129 
Q 3597 2675 3597 1894 
z
M 3022 2063 
Q 3016 2534 2758 2815 
Q 2500 3097 2075 3097 
Q 1594 3097 1305 2825 
Q 1016 2553 972 2059 
L 3022 2063 
z
" transform="scale(0.015625)"/>
        <path id="DejaVuSans-63" d="M 3122 3366 
L 3122 2828 
Q 2878 2963 2633 3030 
Q 2388 3097 2138 3097 
Q 1578 3097 1268 2742 
Q 959 2388 959 1747 
Q 959 1106 1268 751 
Q 1578 397 2138 397 
Q 2388 397 2633 464 
Q 2878 531 3122 666 
L 3122 134 
Q 2881 22 2623 -34 
Q 2366 -91 2075 -91 
Q 1284 -91 818 406 
Q 353 903 353 1747 
Q 353 2603 823 3093 
Q 1294 3584 2113 3584 
Q 2378 3584 2631 3529 
Q 2884 3475 3122 3366 
z
" transform="scale(0.015625)"/>
        <path id="DejaVuSans-74" d="M 1172 4494 
L 1172 3500 
L 2356 3500 
L 2356 3053 
L 1172 3053 
L 1172 1153 
Q 1172 725 1289 603 
Q 1406 481 1766 481 
L 2356 481 
L 2356 0 
L 1766 0 
Q 1100 0 847 248 
Q 594 497 594 1153 
L 594 3053 
L 172 3053 
L 172 3500 
L 594 3500 
L 594 4494 
L 1172 4494 
z
" transform="scale(0.015625)"/>
        <path id="DejaVuSans-6f" d="M 1959 3097 
Q 1497 3097 1228 2736 
Q 959 2375 959 1747 
Q 959 1119 1226 758 
Q 1494 397 1959 397 
Q 2419 397 2687 759 
Q 2956 1122 2956 1747 
Q 2956 2369 2687 2733 
Q 2419 3097 1959 3097 
z
M 1959 3584 
Q 2709 3584 3137 3096 
Q 3566 2609 3566 1747 
Q 3566 888 3137 398 
Q 2709 -91 1959 -91 
Q 1206 -91 779 398 
Q 353 888 353 1747 
Q 353 2609 779 3096 
Q 1206 3584 1959 3584 
z
" transform="scale(0.015625)"/>
        <path id="DejaVuSans-72" d="M 2631 2963 
Q 2534 3019 2420 3045 
Q 2306 3072 2169 3072 
Q 1681 3072 1420 2755 
Q 1159 2438 1159 1844 
L 1159 0 
L 581 0 
L 581 3500 
L 1159 3500 
L 1159 2956 
Q 1341 3275 1631 3429 
Q 1922 3584 2338 3584 
Q 2397 3584 2469 3576 
Q 2541 3569 2628 3553 
L 2631 2963 
z
" transform="scale(0.015625)"/>
        <path id="DejaVuSans-20" transform="scale(0.015625)"/>
        <path id="DejaVuSans-42" d="M 1259 2228 
L 1259 519 
L 2272 519 
Q 2781 519 3026 730 
Q 3272 941 3272 1375 
Q 3272 1813 3026 2020 
Q 2781 2228 2272 2228 
L 1259 2228 
z
M 1259 4147 
L 1259 2741 
L 2194 2741 
Q 2656 2741 2882 2914 
Q 3109 3088 3109 3444 
Q 3109 3797 2882 3972 
Q 2656 4147 2194 4147 
L 1259 4147 
z
M 628 4666 
L 2241 4666 
Q 2963 4666 3353 4366 
Q 3744 4066 3744 3513 
Q 3744 3084 3544 2831 
Q 3344 2578 2956 2516 
Q 3422 2416 3680 2098 
Q 3938 1781 3938 1306 
Q 3938 681 3513 340 
Q 3088 0 2303 0 
L 628 0 
L 628 4666 
z
" transform="scale(0.015625)"/>
        <path id="DejaVuSans-61" d="M 2194 1759 
Q 1497 1759 1228 1600 
Q 959 1441 959 1056 
Q 959 750 1161 570 
Q 1363 391 1709 391 
Q 2188 391 2477 730 
Q 2766 1069 2766 1631 
L 2766 1759 
L 2194 1759 
z
M 3341 1997 
L 3341 0 
L 2766 0 
L 2766 531 
Q 2569 213 2275 61 
Q 1981 -91 1556 -91 
Q 1019 -91 701 211 
Q 384 513 384 1019 
Q 384 1609 779 1909 
Q 1175 2209 1959 2209 
L 2766 2209 
L 2766 2266 
Q 2766 2663 2505 2880 
Q 2244 3097 1772 3097 
Q 1472 3097 1187 3025 
Q 903 2953 641 2809 
L 641 3341 
Q 956 3463 1253 3523 
Q 1550 3584 1831 3584 
Q 2591 3584 2966 3190 
Q 3341 2797 3341 1997 
z
" transform="scale(0.015625)"/>
        <path id="DejaVuSans-64" d="M 2906 2969 
L 2906 4863 
L 3481 4863 
L 3481 0 
L 2906 0 
L 2906 525 
Q 2725 213 2448 61 
Q 2172 -91 1784 -91 
Q 1150 -91 751 415 
Q 353 922 353 1747 
Q 353 2572 751 3078 
Q 1150 3584 1784 3584 
Q 2172 3584 2448 3432 
Q 2725 3281 2906 2969 
z
M 947 1747 
Q 947 1113 1208 752 
Q 1469 391 1925 391 
Q 2381 391 2643 752 
Q 2906 1113 2906 1747 
Q 2906 2381 2643 2742 
Q 2381 3103 1925 3103 
Q 1469 3103 1208 2742 
Q 947 2381 947 1747 
z
" transform="scale(0.015625)"/>
        <path id="DejaVuSans-68" d="M 3513 2113 
L 3513 0 
L 2938 0 
L 2938 2094 
Q 2938 2591 2744 2837 
Q 2550 3084 2163 3084 
Q 1697 3084 1428 2787 
Q 1159 2491 1159 1978 
L 1159 0 
L 581 0 
L 581 4863 
L 1159 4863 
L 1159 2956 
Q 1366 3272 1645 3428 
Q 1925 3584 2291 3584 
Q 2894 3584 3203 3211 
Q 3513 2838 3513 2113 
z
" transform="scale(0.015625)"/>
       </defs>
       <use xlink:href="#DejaVuSans-56"/>
       <use xlink:href="#DejaVuSans-65" transform="translate(60.658203 0)"/>
       <use xlink:href="#DejaVuSans-63" transform="translate(122.181641 0)"/>
       <use xlink:href="#DejaVuSans-74" transform="translate(177.162109 0)"/>
       <use xlink:href="#DejaVuSans-6f" transform="translate(216.371094 0)"/>
       <use xlink:href="#DejaVuSans-72" transform="translate(277.552734 0)"/>
       <use xlink:href="#DejaVuSans-20" transform="translate(318.666016 0)"/>
       <use xlink:href="#DejaVuSans-42" transform="translate(350.453125 0)"/>
       <use xlink:href="#DejaVuSans-72" transform="translate(419.056641 0)"/>
       <use xlink:href="#DejaVuSans-65" transform="translate(457.919922 0)"/>
       <use xlink:href="#DejaVuSans-61" transform="translate(519.443359 0)"/>
       <use xlink:href="#DejaVuSans-64" transform="translate(580.722656 0)"/>
       <use xlink:href="#DejaVuSans-74" transform="translate(644.199219 0)"/>
       <use xlink:href="#DejaVuSans-68" transform="translate(683.408203 0)"/>
      </g>
     </g>
    </g>
    <g id="xtick_2">
     <g id="line2d_6">
      <path d="M 211.525995 212.124414 
L 372.52712 159.811977 
" clip-path="url(#p5827aa0699)" style="fill: none; stroke: #b0b0b0; stroke-width: 0.8; stroke-linecap: square"/>
     </g>
     <g id="text_2">
      <!-- Openness -->
      <g transform="translate(363.51277 157.969177) scale(0.09 -0.09)">
       <defs>
        <path id="DejaVuSans-4f" d="M 2522 4238 
Q 1834 4238 1429 3725 
Q 1025 3213 1025 2328 
Q 1025 1447 1429 934 
Q 1834 422 2522 422 
Q 3209 422 3611 934 
Q 4013 1447 4013 2328 
Q 4013 3213 3611 3725 
Q 3209 4238 2522 4238 
z
M 2522 4750 
Q 3503 4750 4090 4092 
Q 4678 3434 4678 2328 
Q 4678 1225 4090 567 
Q 3503 -91 2522 -91 
Q 1538 -91 948 565 
Q 359 1222 359 2328 
Q 359 3434 948 4092 
Q 1538 4750 2522 4750 
z
" transform="scale(0.015625)"/>
        <path id="DejaVuSans-70" d="M 1159 525 
L 1159 -1331 
L 581 -1331 
L 581 3500 
L 1159 3500 
L 1159 2969 
Q 1341 3281 1617 3432 
Q 1894 3584 2278 3584 
Q 2916 3584 3314 3078 
Q 3713 2572 3713 1747 
Q 3713 922 3314 415 
Q 2916 -91 2278 -91 
Q 1894 -91 1617 61 
Q 1341 213 1159 525 
z
M 3116 1747 
Q 3116 2381 2855 2742 
Q 2594 3103 2138 3103 
Q 1681 3103 1420 2742 
Q 1159 2381 1159 1747 
Q 1159 1113 1420 752 
Q 1681 391 2138 391 
Q 2594 391 2855 752 
Q 3116 1113 3116 1747 
z
" transform="scale(0.015625)"/>
        <path id="DejaVuSans-6e" d="M 3513 2113 
L 3513 0 
L 2938 0 
L 2938 2094 
Q 2938 2591 2744 2837 
Q 2550 3084 2163 3084 
Q 1697 3084 1428 2787 
Q 1159 2491 1159 1978 
L 1159 0 
L 581 0 
L 581 3500 
L 1159 3500 
L 1159 2956 
Q 1366 3272 1645 3428 
Q 1925 3584 2291 3584 
Q 2894 3584 3203 3211 
Q 3513 2838 3513 2113 
z
" transform="scale(0.015625)"/>
        <path id="DejaVuSans-73" d="M 2834 3397 
L 2834 2853 
Q 2591 2978 2328 3040 
Q 2066 3103 1784 3103 
Q 1356 3103 1142 2972 
Q 928 2841 928 2578 
Q 928 2378 1081 2264 
Q 1234 2150 1697 2047 
L 1894 2003 
Q 2506 1872 2764 1633 
Q 3022 1394 3022 966 
Q 3022 478 2636 193 
Q 2250 -91 1575 -91 
Q 1294 -91 989 -36 
Q 684 19 347 128 
L 347 722 
Q 666 556 975 473 
Q 1284 391 1588 391 
Q 1994 391 2212 530 
Q 2431 669 2431 922 
Q 2431 1156 2273 1281 
Q 2116 1406 1581 1522 
L 1381 1569 
Q 847 1681 609 1914 
Q 372 2147 372 2553 
Q 372 3047 722 3315 
Q 1072 3584 1716 3584 
Q 2034 3584 2315 3537 
Q 2597 3491 2834 3397 
z
" transform="scale(0.015625)"/>
       </defs>
       <use xlink:href="#DejaVuSans-4f"/>
       <use xlink:href="#DejaVuSans-70" transform="translate(78.710938 0)"/>
       <use xlink:href="#DejaVuSans-65" transform="translate(142.1875 0)"/>
       <use xlink:href="#DejaVuSans-6e" transform="translate(203.710938 0)"/>
       <use xlink:href="#DejaVuSans-6e" transform="translate(267.089844 0)"/>
       <use xlink:href="#DejaVuSans-65" transform="translate(330.46875 0)"/>
       <use xlink:href="#DejaVuSans-73" transform="translate(391.992188 0)"/>
       <use xlink:href="#DejaVuSans-73" transform="translate(444.091797 0)"/>
      </g>
     </g>
    </g>
    <g id="xtick_3">
     <g id="line2d_7">
      <path d="M 211.525995 212.124414 
L 311.030162 349.080151 
" clip-path="url(#p5827aa0699)" style="fill: none; stroke: #b0b0b0; stroke-width: 0.8; stroke-linecap: square"/>
     </g>
     <g id="text_3">
      <!-- Distribution Coverage -->
      <g transform="translate(270.015796 362.889826) scale(0.09 -0.09)">
       <defs>
        <path id="DejaVuSans-44" d="M 1259 4147 
L 1259 519 
L 2022 519 
Q 2988 519 3436 956 
Q 3884 1394 3884 2338 
Q 3884 3275 3436 3711 
Q 2988 4147 2022 4147 
L 1259 4147 
z
M 628 4666 
L 1925 4666 
Q 3281 4666 3915 4102 
Q 4550 3538 4550 2338 
Q 4550 1131 3912 565 
Q 3275 0 1925 0 
L 628 0 
L 628 4666 
z
" transform="scale(0.015625)"/>
        <path id="DejaVuSans-69" d="M 603 3500 
L 1178 3500 
L 1178 0 
L 603 0 
L 603 3500 
z
M 603 4863 
L 1178 4863 
L 1178 4134 
L 603 4134 
L 603 4863 
z
" transform="scale(0.015625)"/>
        <path id="DejaVuSans-62" d="M 3116 1747 
Q 3116 2381 2855 2742 
Q 2594 3103 2138 3103 
Q 1681 3103 1420 2742 
Q 1159 2381 1159 1747 
Q 1159 1113 1420 752 
Q 1681 391 2138 391 
Q 2594 391 2855 752 
Q 3116 1113 3116 1747 
z
M 1159 2969 
Q 1341 3281 1617 3432 
Q 1894 3584 2278 3584 
Q 2916 3584 3314 3078 
Q 3713 2572 3713 1747 
Q 3713 922 3314 415 
Q 2916 -91 2278 -91 
Q 1894 -91 1617 61 
Q 1341 213 1159 525 
L 1159 0 
L 581 0 
L 581 4863 
L 1159 4863 
L 1159 2969 
z
" transform="scale(0.015625)"/>
        <path id="DejaVuSans-75" d="M 544 1381 
L 544 3500 
L 1119 3500 
L 1119 1403 
Q 1119 906 1312 657 
Q 1506 409 1894 409 
Q 2359 409 2629 706 
Q 2900 1003 2900 1516 
L 2900 3500 
L 3475 3500 
L 3475 0 
L 2900 0 
L 2900 538 
Q 2691 219 2414 64 
Q 2138 -91 1772 -91 
Q 1169 -91 856 284 
Q 544 659 544 1381 
z
M 1991 3584 
L 1991 3584 
z
" transform="scale(0.015625)"/>
        <path id="DejaVuSans-43" d="M 4122 4306 
L 4122 3641 
Q 3803 3938 3442 4084 
Q 3081 4231 2675 4231 
Q 1875 4231 1450 3742 
Q 1025 3253 1025 2328 
Q 1025 1406 1450 917 
Q 1875 428 2675 428 
Q 3081 428 3442 575 
Q 3803 722 4122 1019 
L 4122 359 
Q 3791 134 3420 21 
Q 3050 -91 2638 -91 
Q 1578 -91 968 557 
Q 359 1206 359 2328 
Q 359 3453 968 4101 
Q 1578 4750 2638 4750 
Q 3056 4750 3426 4639 
Q 3797 4528 4122 4306 
z
" transform="scale(0.015625)"/>
        <path id="DejaVuSans-76" d="M 191 3500 
L 800 3500 
L 1894 563 
L 2988 3500 
L 3597 3500 
L 2284 0 
L 1503 0 
L 191 3500 
z
" transform="scale(0.015625)"/>
        <path id="DejaVuSans-67" d="M 2906 1791 
Q 2906 2416 2648 2759 
Q 2391 3103 1925 3103 
Q 1463 3103 1205 2759 
Q 947 2416 947 1791 
Q 947 1169 1205 825 
Q 1463 481 1925 481 
Q 2391 481 2648 825 
Q 2906 1169 2906 1791 
z
M 3481 434 
Q 3481 -459 3084 -895 
Q 2688 -1331 1869 -1331 
Q 1566 -1331 1297 -1286 
Q 1028 -1241 775 -1147 
L 775 -588 
Q 1028 -725 1275 -790 
Q 1522 -856 1778 -856 
Q 2344 -856 2625 -561 
Q 2906 -266 2906 331 
L 2906 616 
Q 2728 306 2450 153 
Q 2172 0 1784 0 
Q 1141 0 747 490 
Q 353 981 353 1791 
Q 353 2603 747 3093 
Q 1141 3584 1784 3584 
Q 2172 3584 2450 3431 
Q 2728 3278 2906 2969 
L 2906 3500 
L 3481 3500 
L 3481 434 
z
" transform="scale(0.015625)"/>
       </defs>
       <use xlink:href="#DejaVuSans-44"/>
       <use xlink:href="#DejaVuSans-69" transform="translate(77.001953 0)"/>
       <use xlink:href="#DejaVuSans-73" transform="translate(104.785156 0)"/>
       <use xlink:href="#DejaVuSans-74" transform="translate(156.884766 0)"/>
       <use xlink:href="#DejaVuSans-72" transform="translate(196.09375 0)"/>
       <use xlink:href="#DejaVuSans-69" transform="translate(237.207031 0)"/>
       <use xlink:href="#DejaVuSans-62" transform="translate(264.990234 0)"/>
       <use xlink:href="#DejaVuSans-75" transform="translate(328.466797 0)"/>
       <use xlink:href="#DejaVuSans-74" transform="translate(391.845703 0)"/>
       <use xlink:href="#DejaVuSans-69" transform="translate(431.054688 0)"/>
       <use xlink:href="#DejaVuSans-6f" transform="translate(458.837891 0)"/>
       <use xlink:href="#DejaVuSans-6e" transform="translate(520.019531 0)"/>
       <use xlink:href="#DejaVuSans-20" transform="translate(583.398438 0)"/>
       <use xlink:href="#DejaVuSans-43" transform="translate(615.185547 0)"/>
       <use xlink:href="#DejaVuSans-6f" transform="translate(685.009766 0)"/>
       <use xlink:href="#DejaVuSans-76" transform="translate(746.191406 0)"/>
       <use xlink:href="#DejaVuSans-65" transform="translate(805.371094 0)"/>
       <use xlink:href="#DejaVuSans-72" transform="translate(866.894531 0)"/>
       <use xlink:href="#DejaVuSans-61" transform="translate(908.007812 0)"/>
       <use xlink:href="#DejaVuSans-67" transform="translate(969.287109 0)"/>
       <use xlink:href="#DejaVuSans-65" transform="translate(1032.763672 0)"/>
      </g>
     </g>
    </g>
    <g id="xtick_4">
     <g id="line2d_8">
      <path d="M 211.525995 212.124414 
L 112.021827 349.080151 
" clip-path="url(#p5827aa0699)" style="fill: none; stroke: #b0b0b0; stroke-width: 0.8; stroke-linecap: square"/>
     </g>
     <g id="text_4">
      <!-- Activity -->
      <g transform="translate(86.963537 362.889826) scale(0.09 -0.09)">
       <defs>
        <path id="DejaVuSans-41" d="M 2188 4044 
L 1331 1722 
L 3047 1722 
L 2188 4044 
z
M 1831 4666 
L 2547 4666 
L 4325 0 
L 3669 0 
L 3244 1197 
L 1141 1197 
L 716 0 
L 50 0 
L 1831 4666 
z
" transform="scale(0.015625)"/>
        <path id="DejaVuSans-79" d="M 2059 -325 
Q 1816 -950 1584 -1140 
Q 1353 -1331 966 -1331 
L 506 -1331 
L 506 -850 
L 844 -850 
Q 1081 -850 1212 -737 
Q 1344 -625 1503 -206 
L 1606 56 
L 191 3500 
L 800 3500 
L 1894 763 
L 2988 3500 
L 3597 3500 
L 2059 -325 
z
" transform="scale(0.015625)"/>
       </defs>
       <use xlink:href="#DejaVuSans-41"/>
       <use xlink:href="#DejaVuSans-63" transform="translate(66.658203 0)"/>
       <use xlink:href="#DejaVuSans-74" transform="translate(121.638672 0)"/>
       <use xlink:href="#DejaVuSans-69" transform="translate(160.847656 0)"/>
       <use xlink:href="#DejaVuSans-76" transform="translate(188.630859 0)"/>
       <use xlink:href="#DejaVuSans-69" transform="translate(247.810547 0)"/>
       <use xlink:href="#DejaVuSans-74" transform="translate(275.59375 0)"/>
       <use xlink:href="#DejaVuSans-79" transform="translate(314.802734 0)"/>
      </g>
     </g>
    </g>
    <g id="xtick_5">
     <g id="line2d_9">
      <path d="M 211.525995 212.124414 
L 50.524869 159.811977 
" clip-path="url(#p5827aa0699)" style="fill: none; stroke: #b0b0b0; stroke-width: 0.8; stroke-linecap: square"/>
     </g>
     <g id="text_5">
      <!-- Transparency -->
      <g transform="translate(7.2 157.969177) scale(0.09 -0.09)">
       <defs>
        <path id="DejaVuSans-54" d="M -19 4666 
L 3928 4666 
L 3928 4134 
L 2272 4134 
L 2272 0 
L 1638 0 
L 1638 4134 
L -19 4134 
L -19 4666 
z
" transform="scale(0.015625)"/>
       </defs>
       <use xlink:href="#DejaVuSans-54"/>
       <use xlink:href="#DejaVuSans-72" transform="translate(46.333984 0)"/>
       <use xlink:href="#DejaVuSans-61" transform="translate(87.447266 0)"/>
       <use xlink:href="#DejaVuSans-6e" transform="translate(148.726562 0)"/>
       <use xlink:href="#DejaVuSans-73" transform="translate(212.105469 0)"/>
       <use xlink:href="#DejaVuSans-70" transform="translate(264.205078 0)"/>
       <use xlink:href="#DejaVuSans-61" transform="translate(327.681641 0)"/>
       <use xlink:href="#DejaVuSans-72" transform="translate(388.960938 0)"/>
       <use xlink:href="#DejaVuSans-65" transform="translate(427.824219 0)"/>
       <use xlink:href="#DejaVuSans-6e" transform="translate(489.347656 0)"/>
       <use xlink:href="#DejaVuSans-63" transform="translate(552.726562 0)"/>
       <use xlink:href="#DejaVuSans-79" transform="translate(607.707031 0)"/>
      </g>
     </g>
    </g>
   </g>
   <g id="matplotlib.axis_2">
    <g id="ytick_1">
     <g id="line2d_10">
      <path d="M 211.525995 155.695547 
C 218.936165 155.695547 226.274282 157.155189 233.120387 159.990938 
C 239.966492 162.826688 246.187447 166.983397 251.427229 172.223179 
C 256.667011 177.462961 260.82372 183.683916 263.65947 190.530021 
C 266.495219 197.376126 267.954862 204.714243 267.954862 212.124414 
C 267.954862 219.534585 266.495219 226.872701 263.65947 233.718806 
C 260.82372 240.564911 256.667011 246.785866 251.427229 252.025648 
C 246.187447 257.26543 239.966492 261.422139 233.120387 264.257889 
C 226.274282 267.093639 218.936165 268.553281 211.525995 268.553281 
C 204.115824 268.553281 196.777707 267.093639 189.931602 264.257889 
C 183.085497 261.422139 176.864542 257.26543 171.62476 252.025648 
C 166.384978 246.785866 162.228269 240.564911 159.392519 233.718806 
C 156.55677 226.872701 155.097127 219.534585 155.097127 212.124414 
C 155.097127 204.714243 156.55677 197.376126 159.392519 190.530021 
C 162.228269 183.683916 166.384978 177.462961 171.62476 172.223179 
C 176.864542 166.983397 183.085497 162.826688 189.931602 159.990938 
C 196.777707 157.155189 204.115824 155.695547 211.525995 155.695547 
" clip-path="url(#p5827aa0699)" style="fill: none; stroke: #b0b0b0; stroke-width: 0.8; stroke-linecap: square"/>
     </g>
     <g id="text_6">
      <!-- 1 -->
      <g style="fill: #808080" transform="translate(211.525995 154.239765) scale(0.07 -0.07)">
       <defs>
        <path id="DejaVuSans-31" d="M 794 531 
L 1825 531 
L 1825 4091 
L 703 3866 
L 703 4441 
L 1819 4666 
L 2450 4666 
L 2450 531 
L 3481 531 
L 3481 0 
L 794 0 
L 794 531 
z
" transform="scale(0.015625)"/>
       </defs>
       <use xlink:href="#DejaVuSans-31"/>
      </g>
     </g>
    </g>
    <g id="ytick_2">
     <g id="line2d_11">
      <path d="M 211.525995 99.26668 
C 226.346336 99.26668 241.022569 102.185964 254.71478 107.857463 
C 268.40699 113.528962 280.848899 121.84238 291.328464 132.321945 
C 301.808028 142.801509 310.121446 155.243418 315.792945 168.935629 
C 321.464444 182.627839 324.383729 197.304072 324.383729 212.124414 
C 324.383729 226.944756 321.464444 241.620988 315.792945 255.313199 
C 310.121446 269.005409 301.808028 281.447319 291.328464 291.926883 
C 280.848899 302.406447 268.40699 310.719865 254.71478 316.391364 
C 241.022569 322.062864 226.346336 324.982148 211.525995 324.982148 
C 196.705653 324.982148 182.02942 322.062864 168.337209 316.391364 
C 154.644999 310.719865 142.20309 302.406447 131.723525 291.926883 
C 121.243961 281.447319 112.930543 269.005409 107.259044 255.313199 
C 101.587545 241.620988 98.66826 226.944756 98.66826 212.124414 
C 98.66826 197.304072 101.587545 182.627839 107.259044 168.935629 
C 112.930543 155.243418 121.243961 142.801509 131.723525 132.321945 
C 142.20309 121.84238 154.644999 113.528962 168.337209 107.857463 
C 182.02942 102.185964 196.705653 99.26668 211.525995 99.26668 
" clip-path="url(#p5827aa0699)" style="fill: none; stroke: #b0b0b0; stroke-width: 0.8; stroke-linecap: square"/>
     </g>
     <g id="text_7">
      <!-- 2 -->
      <g style="fill: #808080" transform="translate(211.525995 97.810898) scale(0.07 -0.07)">
       <defs>
        <path id="DejaVuSans-32" d="M 1228 531 
L 3431 531 
L 3431 0 
L 469 0 
L 469 531 
Q 828 903 1448 1529 
Q 2069 2156 2228 2338 
Q 2531 2678 2651 2914 
Q 2772 3150 2772 3378 
Q 2772 3750 2511 3984 
Q 2250 4219 1831 4219 
Q 1534 4219 1204 4116 
Q 875 4013 500 3803 
L 500 4441 
Q 881 4594 1212 4672 
Q 1544 4750 1819 4750 
Q 2544 4750 2975 4387 
Q 3406 4025 3406 3419 
Q 3406 3131 3298 2873 
Q 3191 2616 2906 2266 
Q 2828 2175 2409 1742 
Q 1991 1309 1228 531 
z
" transform="scale(0.015625)"/>
       </defs>
       <use xlink:href="#DejaVuSans-32"/>
      </g>
     </g>
    </g>
    <g id="ytick_3">
     <g id="line2d_12">
      <path d="M 211.525995 42.837813 
C 233.756507 42.837813 255.770856 47.216739 276.309172 55.723988 
C 296.847488 64.231237 315.510352 76.701364 331.229698 92.42071 
C 346.949045 108.140056 359.419172 126.80292 367.92642 147.341236 
C 376.433669 167.879552 380.812596 189.893901 380.812596 212.124414 
C 380.812596 234.354926 376.433669 256.369276 367.92642 276.907591 
C 359.419172 297.445907 346.949045 316.108771 331.229698 331.828117 
C 315.510352 347.547464 296.847488 360.017591 276.309172 368.52484 
C 255.770856 377.032089 233.756507 381.411015 211.525995 381.411015 
C 189.295482 381.411015 167.281133 377.032089 146.742817 368.52484 
C 126.204501 360.017591 107.541637 347.547464 91.822291 331.828117 
C 76.102945 316.108771 63.632818 297.445907 55.125569 276.907591 
C 46.61832 256.369276 42.239393 234.354926 42.239393 212.124414 
C 42.239393 189.893901 46.61832 167.879552 55.125569 147.341236 
C 63.632818 126.80292 76.102945 108.140056 91.822291 92.42071 
C 107.541637 76.701364 126.204501 64.231237 146.742817 55.723988 
C 167.281133 47.216739 189.295482 42.837813 211.525995 42.837813 
" clip-path="url(#p5827aa0699)" style="fill: none; stroke: #b0b0b0; stroke-width: 0.8; stroke-linecap: square"/>
     </g>
     <g id="text_8">
      <!-- 3 -->
      <g style="fill: #808080" transform="translate(211.525995 41.382031) scale(0.07 -0.07)">
       <defs>
        <path id="DejaVuSans-33" d="M 2597 2516 
Q 3050 2419 3304 2112 
Q 3559 1806 3559 1356 
Q 3559 666 3084 287 
Q 2609 -91 1734 -91 
Q 1441 -91 1130 -33 
Q 819 25 488 141 
L 488 750 
Q 750 597 1062 519 
Q 1375 441 1716 441 
Q 2309 441 2620 675 
Q 2931 909 2931 1356 
Q 2931 1769 2642 2001 
Q 2353 2234 1838 2234 
L 1294 2234 
L 1294 2753 
L 1863 2753 
Q 2328 2753 2575 2939 
Q 2822 3125 2822 3475 
Q 2822 3834 2567 4026 
Q 2313 4219 1838 4219 
Q 1578 4219 1281 4162 
Q 984 4106 628 3988 
L 628 4550 
Q 988 4650 1302 4700 
Q 1616 4750 1894 4750 
Q 2613 4750 3031 4423 
Q 3450 4097 3450 3541 
Q 3450 3153 3228 2886 
Q 3006 2619 2597 2516 
z
" transform="scale(0.015625)"/>
       </defs>
       <use xlink:href="#DejaVuSans-33"/>
      </g>
     </g>
    </g>
   </g>
   <g id="patch_7">
    <path d="M 211.525995 42.837813 
C 189.295482 42.837813 167.281133 47.216739 146.742817 55.723988 
C 126.204501 64.231237 107.541637 76.701364 91.822291 92.42071 
C 76.102945 108.140056 63.632818 126.80292 55.125569 147.341236 
C 46.61832 167.879552 42.239393 189.893901 42.239393 212.124414 
C 42.239393 234.354926 46.61832 256.369276 55.125569 276.907591 
C 63.632818 297.445907 76.102945 316.108771 91.822291 331.828117 
C 107.541637 347.547464 126.204501 360.017591 146.742817 368.52484 
C 167.281133 377.032089 189.295482 381.411015 211.525995 381.411015 
C 233.756507 381.411015 255.770856 377.032089 276.309172 368.52484 
C 296.847488 360.017591 315.510352 347.547464 331.229698 331.828117 
C 346.949045 316.108771 359.419172 297.445907 367.92642 276.907591 
C 376.433669 256.369276 380.812596 234.354926 380.812596 212.124414 
C 380.812596 189.893901 376.433669 167.879552 367.92642 147.341236 
C 359.419172 126.80292 346.949045 108.140056 331.229698 92.42071 
C 315.510352 76.701364 296.847488 64.231237 276.309172 55.723988 
C 255.770856 47.216739 233.756507 42.837813 211.525995 42.837813 
" style="fill: none; stroke: #000000; stroke-width: 0.8; stroke-linejoin: miter; stroke-linecap: square"/>
   </g>
   <g id="line2d_13">
    <path d="M 211.525995 42.837813 
L 372.52712 159.811977 
L 311.030162 349.080151 
L 112.021827 349.080151 
L 50.524869 159.811977 
L 211.525995 42.837813 
" clip-path="url(#p5827aa0699)" style="fill: none; stroke: #4caf50; stroke-width: 2.5; stroke-linecap: square"/>
   </g>
   <g id="patch_8">
    <path d="M 211.525995 42.837813 
L 372.52712 159.811977 
L 311.030162 349.080151 
L 112.021827 349.080151 
L 50.524869 159.811977 
z
" clip-path="url(#p5827aa0699)" style="fill: #4caf50; opacity: 0.4; stroke: #4caf50; stroke-linejoin: miter"/>
   </g>
   <g id="text_9">
    <!-- SIMD RNG Ecosystem — Capability Radar -->
    <g transform="translate(66.39412 17.837812) scale(0.14 -0.14)">
     <defs>
      <path id="DejaVuSans-53" d="M 3425 4513 
L 3425 3897 
Q 3066 4069 2747 4153 
Q 2428 4238 2131 4238 
Q 1616 4238 1336 4038 
Q 1056 3838 1056 3469 
Q 1056 3159 1242 3001 
Q 1428 2844 1947 2747 
L 2328 2669 
Q 3034 2534 3370 2195 
Q 3706 1856 3706 1288 
Q 3706 609 3251 259 
Q 2797 -91 1919 -91 
Q 1588 -91 1214 -16 
Q 841 59 441 206 
L 441 856 
Q 825 641 1194 531 
Q 1563 422 1919 422 
Q 2459 422 2753 634 
Q 3047 847 3047 1241 
Q 3047 1584 2836 1778 
Q 2625 1972 2144 2069 
L 1759 2144 
Q 1053 2284 737 2584 
Q 422 2884 422 3419 
Q 422 4038 858 4394 
Q 1294 4750 2059 4750 
Q 2388 4750 2728 4690 
Q 3069 4631 3425 4513 
z
" transform="scale(0.015625)"/>
      <path id="DejaVuSans-49" d="M 628 4666 
L 1259 4666 
L 1259 0 
L 628 0 
L 628 4666 
z
" transform="scale(0.015625)"/>
      <path id="DejaVuSans-4d" d="M 628 4666 
L 1569 4666 
L 2759 1491 
L 3956 4666 
L 4897 4666 
L 4897 0 
L 4281 0 
L 4281 4097 
L 3078 897 
L 2444 897 
L 1241 4097 
L 1241 0 
L 628 0 
L 628 4666 
z
" transform="scale(0.015625)"/>
      <path id="DejaVuSans-52" d="M 2841 2188 
Q 3044 2119 3236 1894 
Q 3428 1669 3622 1275 
L 4263 0 
L 3584 0 
L 2988 1197 
Q 2756 1666 2539 1819 
Q 2322 1972 1947 1972 
L 1259 1972 
L 1259 0 
L 628 0 
L 628 4666 
L 2053 4666 
Q 2853 4666 3247 4331 
Q 3641 3997 3641 3322 
Q 3641 2881 3436 2590 
Q 3231 2300 2841 2188 
z
M 1259 4147 
L 1259 2491 
L 2053 2491 
Q 2509 2491 2742 2702 
Q 2975 2913 2975 3322 
Q 2975 3731 2742 3939 
Q 2509 4147 2053 4147 
L 1259 4147 
z
" transform="scale(0.015625)"/>
      <path id="DejaVuSans-4e" d="M 628 4666 
L 1478 4666 
L 3547 763 
L 3547 4666 
L 4159 4666 
L 4159 0 
L 3309 0 
L 1241 3903 
L 1241 0 
L 628 0 
L 628 4666 
z
" transform="scale(0.015625)"/>
      <path id="DejaVuSans-47" d="M 3809 666 
L 3809 1919 
L 2778 1919 
L 2778 2438 
L 4434 2438 
L 4434 434 
Q 4069 175 3628 42 
Q 3188 -91 2688 -91 
Q 1594 -91 976 548 
Q 359 1188 359 2328 
Q 359 3472 976 4111 
Q 1594 4750 2688 4750 
Q 3144 4750 3555 4637 
Q 3966 4525 4313 4306 
L 4313 3634 
Q 3963 3931 3569 4081 
Q 3175 4231 2741 4231 
Q 1884 4231 1454 3753 
Q 1025 3275 1025 2328 
Q 1025 1384 1454 906 
Q 1884 428 2741 428 
Q 3075 428 3337 486 
Q 3600 544 3809 666 
z
" transform="scale(0.015625)"/>
      <path id="DejaVuSans-45" d="M 628 4666 
L 3578 4666 
L 3578 4134 
L 1259 4134 
L 1259 2753 
L 3481 2753 
L 3481 2222 
L 1259 2222 
L 1259 531 
L 3634 531 
L 3634 0 
L 628 0 
L 628 4666 
z
" transform="scale(0.015625)"/>
      <path id="DejaVuSans-6d" d="M 3328 2828 
Q 3544 3216 3844 3400 
Q 4144 3584 4550 3584 
Q 5097 3584 5394 3201 
Q 5691 2819 5691 2113 
L 5691 0 
L 5113 0 
L 5113 2094 
Q 5113 2597 4934 2840 
Q 4756 3084 4391 3084 
Q 3944 3084 3684 2787 
Q 3425 2491 3425 1978 
L 3425 0 
L 2847 0 
L 2847 2094 
Q 2847 2600 2669 2842 
Q 2491 3084 2119 3084 
Q 1678 3084 1418 2786 
Q 1159 2488 1159 1978 
L 1159 0 
L 581 0 
L 581 3500 
L 1159 3500 
L 1159 2956 
Q 1356 3278 1631 3431 
Q 1906 3584 2284 3584 
Q 2666 3584 2933 3390 
Q 3200 3197 3328 2828 
z
" transform="scale(0.015625)"/>
      <path id="DejaVuSans-2014" d="M 313 1978 
L 6088 1978 
L 6088 1528 
L 313 1528 
L 313 1978 
z
" transform="scale(0.015625)"/>
      <path id="DejaVuSans-6c" d="M 603 4863 
L 1178 4863 
L 1178 0 
L 603 0 
L 603 4863 
z
" transform="scale(0.015625)"/>
     </defs>
     <use xlink:href="#DejaVuSans-53"/>
     <use xlink:href="#DejaVuSans-49" transform="translate(63.476562 0)"/>
     <use xlink:href="#DejaVuSans-4d" transform="translate(92.96875 0)"/>
     <use xlink:href="#DejaVuSans-44" transform="translate(179.248047 0)"/>
     <use xlink:href="#DejaVuSans-20" transform="translate(256.25 0)"/>
     <use xlink:href="#DejaVuSans-52" transform="translate(288.037109 0)"/>
     <use xlink:href="#DejaVuSans-4e" transform="translate(357.519531 0)"/>
     <use xlink:href="#DejaVuSans-47" transform="translate(432.324219 0)"/>
     <use xlink:href="#DejaVuSans-20" transform="translate(509.814453 0)"/>
     <use xlink:href="#DejaVuSans-45" transform="translate(541.601562 0)"/>
     <use xlink:href="#DejaVuSans-63" transform="translate(604.785156 0)"/>
     <use xlink:href="#DejaVuSans-6f" transform="translate(659.765625 0)"/>
     <use xlink:href="#DejaVuSans-73" transform="translate(720.947266 0)"/>
     <use xlink:href="#DejaVuSans-79" transform="translate(773.046875 0)"/>
     <use xlink:href="#DejaVuSans-73" transform="translate(832.226562 0)"/>
     <use xlink:href="#DejaVuSans-74" transform="translate(884.326172 0)"/>
     <use xlink:href="#DejaVuSans-65" transform="translate(923.535156 0)"/>
     <use xlink:href="#DejaVuSans-6d" transform="translate(985.058594 0)"/>
     <use xlink:href="#DejaVuSans-20" transform="translate(1082.470703 0)"/>
     <use xlink:href="#DejaVuSans-2014" transform="translate(1114.257812 0)"/>
     <use xlink:href="#DejaVuSans-20" transform="translate(1214.257812 0)"/>
     <use xlink:href="#DejaVuSans-43" transform="translate(1246.044922 0)"/>
     <use xlink:href="#DejaVuSans-61" transform="translate(1315.869141 0)"/>
     <use xlink:href="#DejaVuSans-70" transform="translate(1377.148438 0)"/>
     <use xlink:href="#DejaVuSans-61" transform="translate(1440.625 0)"/>
     <use xlink:href="#DejaVuSans-62" transform="translate(1501.904297 0)"/>
     <use xlink:href="#DejaVuSans-69" transform="translate(1565.380859 0)"/>
     <use xlink:href="#DejaVuSans-6c" transform="translate(1593.164062 0)"/>
     <use xlink:href="#DejaVuSans-69" transform="translate(1620.947266 0)"/>
     <use xlink:href="#DejaVuSans-74" transform="translate(1648.730469 0)"/>
     <use xlink:href="#DejaVuSans-79" transform="translate(1687.939453 0)"/>
     <use xlink:href="#DejaVuSans-20" transform="translate(1747.119141 0)"/>
     <use xlink:href="#DejaVuSans-52" transform="translate(1778.90625 0)"/>
     <use xlink:href="#DejaVuSans-61" transform="translate(1846.138672 0)"/>
     <use xlink:href="#DejaVuSans-64" transform="translate(1907.417969 0)"/>
     <use xlink:href="#DejaVuSans-61" transform="translate(1970.894531 0)"/>
     <use xlink:href="#DejaVuSans-72" transform="translate(2032.173828 0)"/>
    </g>
   </g>
   <g id="legend_1">
    <g id="patch_9">
     <path d="M 399.408306 74.092992 
L 476.784556 74.092992 
Q 478.384556 74.092992 478.384556 72.492992 
L 478.384556 14.580492 
Q 478.384556 12.980492 476.784556 12.980492 
L 399.408306 12.980492 
Q 397.808306 12.980492 397.808306 14.580492 
L 397.808306 72.492992 
Q 397.808306 74.092992 399.408306 74.092992 
z
" style="fill: #ffffff; opacity: 0.8; stroke: #cccccc; stroke-linejoin: miter"/>
    </g>
    <g id="line2d_14">
     <path d="M 401.008306 19.459242 
L 409.008306 19.459242 
L 417.008306 19.459242 
" style="fill: none; stroke: #4caf50; stroke-width: 2.5; stroke-linecap: square"/>
    </g>
    <g id="text_10">
     <!-- UA-RNG v1.7 -->
     <g transform="translate(423.408306 22.259242) scale(0.08 -0.08)">
      <defs>
       <path id="DejaVuSans-55" d="M 556 4666 
L 1191 4666 
L 1191 1831 
Q 1191 1081 1462 751 
Q 1734 422 2344 422 
Q 2950 422 3222 751 
Q 3494 1081 3494 1831 
L 3494 4666 
L 4128 4666 
L 4128 1753 
Q 4128 841 3676 375 
Q 3225 -91 2344 -91 
Q 1459 -91 1007 375 
Q 556 841 556 1753 
L 556 4666 
z
" transform="scale(0.015625)"/>
       <path id="DejaVuSans-2d" d="M 313 2009 
L 1997 2009 
L 1997 1497 
L 313 1497 
L 313 2009 
z
" transform="scale(0.015625)"/>
       <path id="DejaVuSans-2e" d="M 684 794 
L 1344 794 
L 1344 0 
L 684 0 
L 684 794 
z
" transform="scale(0.015625)"/>
       <path id="DejaVuSans-37" d="M 525 4666 
L 3525 4666 
L 3525 4397 
L 1831 0 
L 1172 0 
L 2766 4134 
L 525 4134 
L 525 4666 
z
" transform="scale(0.015625)"/>
      </defs>
      <use xlink:href="#DejaVuSans-55"/>
      <use xlink:href="#DejaVuSans-41" transform="translate(73.193359 0)"/>
      <use xlink:href="#DejaVuSans-2d" transform="translate(139.351562 0)"/>
      <use xlink:href="#DejaVuSans-52" transform="translate(175.435547 0)"/>
      <use xlink:href="#DejaVuSans-4e" transform="translate(244.917969 0)"/>
      <use xlink:href="#DejaVuSans-47" transform="translate(319.722656 0)"/>
      <use xlink:href="#DejaVuSans-20" transform="translate(397.212891 0)"/>
      <use xlink:href="#DejaVuSans-76" transform="translate(429 0)"/>
      <use xlink:href="#DejaVuSans-31" transform="translate(488.179688 0)"/>
      <use xlink:href="#DejaVuSans-2e" transform="translate(551.802734 0)"/>
      <use xlink:href="#DejaVuSans-37" transform="translate(583.589844 0)"/>
     </g>
    </g>
    <g id="line2d_15">
     <path d="M 401.008306 31.201742 
L 409.008306 31.201742 
L 417.008306 31.201742 
" style="fill: none; stroke: #7777cc; stroke-width: 1.2; stroke-linecap: square"/>
    </g>
    <g id="text_11">
     <!-- Intel SVRNG -->
     <g transform="translate(423.408306 34.001742) scale(0.08 -0.08)">
      <use xlink:href="#DejaVuSans-49"/>
      <use xlink:href="#DejaVuSans-6e" transform="translate(29.492188 0)"/>
      <use xlink:href="#DejaVuSans-74" transform="translate(92.871094 0)"/>
      <use xlink:href="#DejaVuSans-65" transform="translate(132.080078 0)"/>
      <use xlink:href="#DejaVuSans-6c" transform="translate(193.603516 0)"/>
      <use xlink:href="#DejaVuSans-20" transform="translate(221.386719 0)"/>
      <use xlink:href="#DejaVuSans-53" transform="translate(253.173828 0)"/>
      <use xlink:href="#DejaVuSans-56" transform="translate(316.650391 0)"/>
      <use xlink:href="#DejaVuSans-52" transform="translate(385.058594 0)"/>
      <use xlink:href="#DejaVuSans-4e" transform="translate(454.541016 0)"/>
      <use xlink:href="#DejaVuSans-47" transform="translate(529.345703 0)"/>
     </g>
    </g>
    <g id="line2d_16">
     <path d="M 401.008306 42.944242 
L 409.008306 42.944242 
L 417.008306 42.944242 
" style="fill: none; stroke: #7777cc; stroke-width: 1.2; stroke-linecap: square"/>
    </g>
    <g id="text_12">
     <!-- Random123 -->
     <g transform="translate(423.408306 45.744242) scale(0.08 -0.08)">
      <use xlink:href="#DejaVuSans-52"/>
      <use xlink:href="#DejaVuSans-61" transform="translate(67.232422 0)"/>
      <use xlink:href="#DejaVuSans-6e" transform="translate(128.511719 0)"/>
      <use xlink:href="#DejaVuSans-64" transform="translate(191.890625 0)"/>
      <use xlink:href="#DejaVuSans-6f" transform="translate(255.367188 0)"/>
      <use xlink:href="#DejaVuSans-6d" transform="translate(316.548828 0)"/>
      <use xlink:href="#DejaVuSans-31" transform="translate(413.960938 0)"/>
      <use xlink:href="#DejaVuSans-32" transform="translate(477.583984 0)"/>
      <use xlink:href="#DejaVuSans-33" transform="translate(541.207031 0)"/>
     </g>
    </g>
    <g id="line2d_17">
     <path d="M 401.008306 54.686742 
L 409.008306 54.686742 
L 417.008306 54.686742 
" style="fill: none; stroke: #7777cc; stroke-width: 1.2; stroke-linecap: square"/>
    </g>
    <g id="text_13">
     <!-- EigenRand -->
     <g transform="translate(423.408306 57.486742) scale(0.08 -0.08)">
      <use xlink:href="#DejaVuSans-45"/>
      <use xlink:href="#DejaVuSans-69" transform="translate(63.183594 0)"/>
      <use xlink:href="#DejaVuSans-67" transform="translate(90.966797 0)"/>
      <use xlink:href="#DejaVuSans-65" transform="translate(154.443359 0)"/>
      <use xlink:href="#DejaVuSans-6e" transform="translate(215.966797 0)"/>
      <use xlink:href="#DejaVuSans-52" transform="translate(279.345703 0)"/>
      <use xlink:href="#DejaVuSans-61" transform="translate(346.578125 0)"/>
      <use xlink:href="#DejaVuSans-6e" transform="translate(407.857422 0)"/>
      <use xlink:href="#DejaVuSans-64" transform="translate(471.236328 0)"/>
     </g>
    </g>
    <g id="line2d_18">
     <path d="M 401.008306 66.429242 
L 409.008306 66.429242 
L 417.008306 66.429242 
" style="fill: none; stroke: #7777cc; stroke-width: 1.2; stroke-linecap: square"/>
    </g>
    <g id="text_14">
     <!-- SIMDxorshift -->
     <g transform="translate(423.408306 69.229242) scale(0.08 -0.08)">
      <defs>
       <path id="DejaVuSans-78" d="M 3513 3500 
L 2247 1797 
L 3578 0 
L 2900 0 
L 1881 1375 
L 863 0 
L 184 0 
L 1544 1831 
L 300 3500 
L 978 3500 
L 1906 2253 
L 2834 3500 
L 3513 3500 
z
" transform="scale(0.015625)"/>
       <path id="DejaVuSans-66" d="M 2375 4863 
L 2375 4384 
L 1825 4384 
Q 1516 4384 1395 4259 
Q 1275 4134 1275 3809 
L 1275 3500 
L 2222 3500 
L 2222 3053 
L 1275 3053 
L 1275 0 
L 697 0 
L 697 3053 
L 147 3053 
L 147 3500 
L 697 3500 
L 697 3744 
Q 697 4328 969 4595 
Q 1241 4863 1831 4863 
L 2375 4863 
z
" transform="scale(0.015625)"/>
      </defs>
      <use xlink:href="#DejaVuSans-53"/>
      <use xlink:href="#DejaVuSans-49" transform="translate(63.476562 0)"/>
      <use xlink:href="#DejaVuSans-4d" transform="translate(92.96875 0)"/>
      <use xlink:href="#DejaVuSans-44" transform="translate(179.248047 0)"/>
      <use xlink:href="#DejaVuSans-78" transform="translate(256.25 0)"/>
      <use xlink:href="#DejaVuSans-6f" transform="translate(312.304688 0)"/>
      <use xlink:href="#DejaVuSans-72" transform="translate(373.486328 0)"/>
      <use xlink:href="#DejaVuSans-73" transform="translate(414.599609 0)"/>
      <use xlink:href="#DejaVuSans-68" transform="translate(466.699219 0)"/>
      <use xlink:href="#DejaVuSans-69" transform="translate(530.078125 0)"/>
      <use xlink:href="#DejaVuSans-66" transform="translate(557.861328 0)"/>
      <use xlink:href="#DejaVuSans-74" transform="translate(591.316406 0)"/>
     </g>
    </g>
   </g>
  </g>
 </g>
 <defs>
  <clipPath id="p5827aa0699">
   <path d="M 380.812596 212.124414 
C 380.812596 189.893901 376.433669 167.879552 367.92642 147.341236 
C 359.419172 126.80292 346.949045 108.140056 331.229698 92.42071 
C 315.510352 76.701364 296.847488 64.231237 276.309172 55.723988 
C 255.770856 47.216739 233.756507 42.837813 211.525995 42.837813 
C 189.295482 42.837813 167.281133 47.216739 146.742817 55.723988 
C 126.204501 64.231237 107.541637 76.701364 91.822291 92.42071 
C 76.102945 108.140056 63.632818 126.80292 55.125569 147.341236 
C 46.61832 167.879552 42.239393 189.893901 42.239393 212.124414 
C 42.239393 234.354926 46.61832 256.369276 55.125569 276.907591 
C 63.632818 297.445907 76.102945 316.108771 91.822291 331.828117 
C 107.541637 347.547464 126.204501 360.017591 146.742817 368.52484 
C 167.281133 377.032089 189.295482 381.411015 211.525995 381.411015 
C 233.756507 381.411015 255.770856 377.032089 276.309172 368.52484 
C 296.847488 360.017591 315.510352 347.547464 331.229698 331.828117 
C 346.949045 316.108771 359.419172 297.445907 367.92642 276.907591 
C 376.433669 256.369276 380.812596 234.354926 380.812596 212.124414 
M 211.525995 212.124414 
C 211.525995 212.124414 211.525995 212.124414 211.525995 212.124414 
C 211.525995 212.124414 211.525995 212.124414 211.525995 212.124414 
C 211.525995 212.124414 211.525995 212.124414 211.525995 212.124414 
C 211.525995 212.124414 211.525995 212.124414 211.525995 212.124414 
C 211.525995 212.124414 211.525995 212.124414 211.525995 212.124414 
C 211.525995 212.124414 211.525995 212.124414 211.525995 212.124414 
C 211.525995 212.124414 211.525995 212.124414 211.525995 212.124414 
C 211.525995 212.124414 211.525995 212.124414 211.525995 212.124414 
C 211.525995 212.124414 211.525995 212.124414 211.525995 212.124414 
C 211.525995 212.124414 211.525995 212.124414 211.525995 212.124414 
C 211.525995 212.124414 211.525995 212.124414 211.525995 212.124414 
C 211.525995 212.124414 211.525995 212.124414 211.525995 212.124414 
C 211.525995 212.124414 211.525995 212.124414 211.525995 212.124414 
C 211.525995 212.124414 211.525995 212.124414 211.525995 212.124414 
C 211.525995 212.124414 211.525995 212.124414 211.525995 212.124414 
C 211.525995 212.124414 211.525995 212.124414 211.525995 212.124414 
z
"/>
  </clipPath>
 </defs>
</svg>
